<?xml version="1.0" encoding="UTF-8" standalone="no"?>
<!-- Created with Inkscape (http://www.inkscape.org/) -->

<svg
   xmlns:dc="http://purl.org/dc/elements/1.1/"
   xmlns:cc="http://creativecommons.org/ns#"
   xmlns:rdf="http://www.w3.org/1999/02/22-rdf-syntax-ns#"
   xmlns:svg="http://www.w3.org/2000/svg"
   xmlns="http://www.w3.org/2000/svg"
   xmlns:sodipodi="http://sodipodi.sourceforge.net/DTD/sodipodi-0.dtd"
   xmlns:inkscape="http://www.inkscape.org/namespaces/inkscape"
   width="823.84668mm"
   height="141.28223mm"
   viewBox="0 0 2919.1417 500.60631"
   id="svg6822"
   version="1.1"
   inkscape:version="0.91 r"
   sodipodi:docname="backboard3.svg">
  <sodipodi:namedview
     id="base"
     pagecolor="#ffffff"
     bordercolor="#666666"
     borderopacity="1.0"
     inkscape:pageopacity="0.0"
     inkscape:pageshadow="2"
     inkscape:zoom="0.47037037"
     inkscape:cx="1510.3228"
     inkscape:cy="163.64382"
     inkscape:document-units="mm"
     inkscape:current-layer="layer1"
     showgrid="false"
     inkscape:window-width="1909"
     inkscape:window-height="995"
     inkscape:window-x="0"
     inkscape:window-y="27"
     inkscape:window-maximized="1"
     showborder="true"
     fit-margin-top="10"
     fit-margin-left="10"
     fit-margin-right="10"
     fit-margin-bottom="10" />
  <defs
     id="defs6824" />
  <metadata
     id="metadata6827">
    <rdf:RDF>
      <cc:Work
         rdf:about="">
        <dc:format>image/svg+xml</dc:format>
        <dc:type
           rdf:resource="http://purl.org/dc/dcmitype/StillImage" />
        <dc:title></dc:title>
      </cc:Work>
    </rdf:RDF>
  </metadata>
  <g
     transform="translate(1083.2086,-346.74409)"
     id="layer1"
     inkscape:groupmode="layer"
     inkscape:label="Layer 1">
    <path
       style="opacity:1;fill:#ff00ff;stroke:#ff00ff;stroke-width:1;stroke-linecap:butt;stroke-linejoin:miter;stroke-miterlimit:4;stroke-dasharray:none"
       d="m 1427.4528,722.83459 a 11.901575,11.901575 0 0 1 -11.9015,11.90158 11.901575,11.901575 0 0 1 -11.9016,-11.90158 11.901575,11.901575 0 0 1 11.9016,-11.90157 11.901575,11.901575 0 0 1 11.9015,11.90157 z"
       id="circle12245"
       inkscape:connector-curvature="0" />
    <path
       style="opacity:1;fill:#ff00ff;stroke:#ff00ff;stroke-width:1;stroke-linecap:butt;stroke-linejoin:miter;stroke-miterlimit:4;stroke-dasharray:none"
       d="m 1679.0276,722.83459 a 11.901575,11.901575 0 0 1 -11.9016,11.90158 11.901575,11.901575 0 0 1 -11.9016,-11.90158 11.901575,11.901575 0 0 1 11.9016,-11.90157 11.901575,11.901575 0 0 1 11.9016,11.90157 z"
       id="circle12243"
       inkscape:connector-curvature="0" />
    <path
       style="opacity:1;fill:#ff00ff;stroke:#ff00ff;stroke-width:1;stroke-linecap:butt;stroke-linejoin:miter;stroke-miterlimit:4;stroke-dasharray:none"
       d="m 1679.0276,471.25983 a 11.901575,11.901575 0 0 1 -11.9016,11.90157 11.901575,11.901575 0 0 1 -11.9016,-11.90157 11.901575,11.901575 0 0 1 11.9016,-11.90158 11.901575,11.901575 0 0 1 11.9016,11.90158 z"
       id="circle12241"
       inkscape:connector-curvature="0" />
    <path
       style="opacity:1;fill:#ff00ff;stroke:#ff00ff;stroke-width:1;stroke-linecap:butt;stroke-linejoin:miter;stroke-miterlimit:4;stroke-dasharray:none"
       d="m 1427.4528,471.25983 a 11.901575,11.901575 0 0 1 -11.9015,11.90157 11.901575,11.901575 0 0 1 -11.9016,-11.90157 11.901575,11.901575 0 0 1 11.9016,-11.90158 11.901575,11.901575 0 0 1 11.9015,11.90158 z"
       id="path12234"
       inkscape:connector-curvature="0" />
    <path
       id="path11474"
       style="fill:none;stroke:#000000"
       d="m 1282.6772,811.41732 0,-23.91732 10.6299,0 0,-20.90551 -10.6299,0 0,-24.09449 10.6299,0 0,-20.90551 -10.6299,0 0,-24.09449 10.6299,0 0,-20.90551 -10.6299,0 0,-24.09449 10.6299,0 0,-20.90551 -10.6299,0 0,-24.09449 10.6299,0 0,-20.90551 -10.6299,0 0,-24.09449 10.6299,0 0,-20.90551 -10.6299,0 0,-24.09449 10.6299,0 0,-20.90551 -10.6299,0 0,-24.09449 10.6299,0 0,-20.90551 -10.6299,0 0,-24.09449 10.6299,0 0,-20.90551 -10.6299,0 0,-23.91732 M 1800,811.41732 l -23.7992,0 0,-10.62992 -20.9055,0 0,10.62992 -23.9764,0 0,-10.62992 -20.9055,0 0,10.62992 -23.9764,0 0,-10.62992 -20.9055,0 0,10.62992 -23.9764,0 0,-10.62992 -20.9055,0 0,10.62992 -23.9764,0 0,-10.62992 -20.9055,0 0,10.62992 -23.9764,0 0,-10.62992 -20.9055,0 0,10.62992 -23.9764,0 0,-10.62992 -20.9055,0 0,10.62992 -23.9763,0 0,-10.62992 -20.9056,0 0,10.62992 -23.9763,0 0,-10.62992 -20.9055,0 0,10.62992 -23.9764,0 0,-10.62992 -20.9055,0 0,10.62992 -23.9764,0 0,-10.62992 -20.9055,0 0,10.62992 -23.7992,0 M 1800,382.67717 l 0,23.91732 -10.6299,0 0,20.90551 10.6299,0 0,24.09449 -10.6299,0 0,20.90551 10.6299,0 0,24.09449 -10.6299,0 0,20.90551 10.6299,0 0,24.09449 -10.6299,0 0,20.90551 10.6299,0 0,24.09449 -10.6299,0 0,20.90551 10.6299,0 0,24.09449 -10.6299,0 0,20.90551 10.6299,0 0,24.09449 -10.6299,0 0,20.90551 10.6299,0 0,24.09449 -10.6299,0 0,20.90551 10.6299,0 0,24.09449 -10.6299,0 0,20.90551 10.6299,0 0,23.91732 m -517.3228,-428.74015 23.7992,0 0,10.62992 20.9055,0 0,-10.62992 23.9764,0 0,10.62992 20.9055,0 0,-10.62992 23.9764,0 0,10.62992 20.9055,0 0,-10.62992 23.9763,0 0,10.62992 20.9056,0 0,-10.62992 23.9763,0 0,10.62992 20.9055,0 0,-10.62992 23.9764,0 0,10.62992 20.9055,0 0,-10.62992 23.9764,0 0,10.62992 20.9055,0 0,-10.62992 23.9764,0 0,10.62992 20.9055,0 0,-10.62992 23.9764,0 0,10.62992 20.9055,0 0,-10.62992 23.9764,0 0,10.62992 20.9055,0 0,-10.62992 23.9764,0 0,10.62992 20.9055,0 0,-10.62992 23.7992,0"
       inkscape:connector-curvature="0" />
    <g
       id="g11590"
       transform="translate(0,-25)">
      <path
         style="opacity:1;fill:#ff0000;stroke:#ff0000;stroke-width:1;stroke-linecap:butt;stroke-linejoin:miter;stroke-miterlimit:4;stroke-dasharray:none"
         d="m 779.527,639.28858 a 18.102363,20.593454 0 0 0 -18.10263,20.59377 18.102363,20.593454 0 0 0 0.0287,0.59807 l -0.0287,0 0,7.87773 0,7.87773 0.0246,0 a 18.102363,20.593454 0 0 0 -0.0246,0.6004 18.102363,20.593454 0 0 0 18.10263,20.59144 18.102363,20.593454 0 0 0 18.10264,-20.59144 18.102363,20.593454 0 0 0 -0.0287,-0.6004 l 0.0287,0 0,-7.87773 0,-7.87773 -0.0246,0 a 18.102363,20.593454 0 0 0 0.0246,-0.59807 18.102363,20.593454 0 0 0 -18.10264,-20.59377 z"
         id="circle7721"
         inkscape:connector-curvature="0" />
      <path
         style="opacity:1;fill:#ff0000;stroke:#ff0000;stroke-width:1;stroke-linecap:butt;stroke-linejoin:miter;stroke-miterlimit:4;stroke-dasharray:none"
         d="m 496.06215,639.28858 a 18.102363,20.593455 0 0 0 -18.10264,20.59376 18.102363,20.593455 0 0 0 0.0288,0.59807 l -0.0288,0 0,7.87773 0,7.87774 0.0246,0 a 18.102363,20.593455 0 0 0 -0.0246,0.6004 18.102363,20.593455 0 0 0 18.10264,20.59144 18.102363,20.593455 0 0 0 18.10264,-20.59144 18.102363,20.593455 0 0 0 -0.0288,-0.6004 l 0.0288,0 0,-15.75547 -0.0246,0 a 18.102363,20.593455 0 0 0 0.0246,-0.59807 18.102363,20.593455 0 0 0 -18.10264,-20.59376 z"
         id="circle7717"
         inkscape:connector-curvature="0" />
      <path
         style="opacity:1;fill:#ff0000;stroke:#ff0000;stroke-width:1;stroke-linecap:butt;stroke-linejoin:miter;stroke-miterlimit:4;stroke-dasharray:none"
         d="m 779.527,426.69092 a 18.102363,20.593454 0 0 0 -18.10263,20.59377 18.102363,20.593454 0 0 0 0.0287,0.59807 l -0.0287,0 0,7.87774 0,7.87772 0.0246,0 a 18.102363,20.593454 0 0 0 -0.0246,0.59807 18.102363,20.593454 0 0 0 18.10263,20.59377 18.102363,20.593454 0 0 0 18.10264,-20.59377 18.102363,20.593454 0 0 0 -0.0287,-0.59807 l 0.0287,0 0,-7.87772 0,-7.87774 -0.0246,0 a 18.102363,20.593454 0 0 0 0.0246,-0.59807 18.102363,20.593454 0 0 0 -18.10264,-20.59377 z"
         id="circle7713"
         inkscape:connector-curvature="0" />
      <path
         style="opacity:1;fill:#ff0000;stroke:#ff0000;stroke-width:1;stroke-linecap:butt;stroke-linejoin:miter;stroke-miterlimit:4;stroke-dasharray:none"
         d="m 496.06215,426.69092 a 18.102363,20.593454 0 0 0 -18.10264,20.59377 18.102363,20.593454 0 0 0 0.0288,0.59807 l -0.0288,0 0,7.87774 0,7.87772 0.0246,0 a 18.102363,20.593454 0 0 0 -0.0246,0.59807 18.102363,20.593454 0 0 0 18.10264,20.59377 18.102363,20.593454 0 0 0 18.10264,-20.59377 18.102363,20.593454 0 0 0 -0.0288,-0.59807 l 0.0288,0 0,-7.87772 0,-7.87774 -0.0246,0 a 18.102363,20.593454 0 0 0 0.0246,-0.59807 18.102363,20.593454 0 0 0 -18.10264,-20.59377 z"
         id="circle7709"
         inkscape:connector-curvature="0" />
      <path
         id="path11567"
         d="m 496.06217,431.64197 a 13.673228,13.673228 0 0 1 13.67383,13.67383 13.673228,13.673228 0 0 1 -2.53321,7.91015 17.216536,17.216536 0 0 1 6.07618,13.1211 17.216536,17.216536 0 0 1 -17.2168,17.21679 17.216536,17.216536 0 0 1 -17.2168,-17.21679 17.216536,17.216536 0 0 1 6.0918,-13.11328 13.673228,13.673228 0 0 1 -2.54688,-7.91797 13.673228,13.673228 0 0 1 13.67188,-13.67383 z"
         style="opacity:1;fill:none;stroke:#000000;stroke-width:1;stroke-linecap:butt;stroke-linejoin:miter;stroke-miterlimit:4;stroke-dasharray:none"
         inkscape:connector-curvature="0" />
      <path
         id="path11565"
         d="m 779.52701,431.64197 a 13.673228,13.673228 0 0 1 13.67383,13.67383 13.673228,13.673228 0 0 1 -2.5332,7.91015 17.216536,17.216536 0 0 1 6.07617,13.1211 17.216536,17.216536 0 0 1 -17.2168,17.21679 17.216536,17.216536 0 0 1 -17.21679,-17.21679 17.216536,17.216536 0 0 1 6.08984,-13.11328 13.673228,13.673228 0 0 1 -2.54688,-7.91797 13.673228,13.673228 0 0 1 13.67383,-13.67383 z"
         style="opacity:1;fill:none;stroke:#000000;stroke-width:1;stroke-linecap:butt;stroke-linejoin:miter;stroke-miterlimit:4;stroke-dasharray:none"
         inkscape:connector-curvature="0" />
      <path
         id="path11563"
         d="m 496.06217,644.23963 a 13.673228,13.673228 0 0 1 13.67383,13.67382 13.673228,13.673228 0 0 1 -2.53125,7.91016 17.216536,17.216536 0 0 1 6.07422,13.12109 17.216536,17.216536 0 0 1 -17.2168,17.2168 17.216536,17.216536 0 0 1 -17.2168,-17.2168 17.216536,17.216536 0 0 1 6.0918,-13.11328 13.673228,13.673228 0 0 1 -2.54688,-7.91797 13.673228,13.673228 0 0 1 13.67188,-13.67382 z"
         style="opacity:1;fill:none;stroke:#000000;stroke-width:1;stroke-linecap:butt;stroke-linejoin:miter;stroke-miterlimit:4;stroke-dasharray:none"
         inkscape:connector-curvature="0" />
      <path
         id="rect7370"
         d="m 779.52701,644.23963 a 13.673228,13.673228 0 0 1 13.67383,13.67382 13.673228,13.673228 0 0 1 -2.53125,7.91016 17.216536,17.216536 0 0 1 6.07422,13.12109 17.216536,17.216536 0 0 1 -17.2168,17.2168 17.216536,17.216536 0 0 1 -17.21679,-17.2168 17.216536,17.216536 0 0 1 6.08984,-13.11328 13.673228,13.673228 0 0 1 -2.54688,-7.91797 13.673228,13.673228 0 0 1 13.67383,-13.67382 z"
         style="opacity:1;fill:none;stroke:#000000;stroke-width:1;stroke-linecap:butt;stroke-linejoin:miter;stroke-miterlimit:4;stroke-dasharray:none"
         inkscape:connector-curvature="0" />
    </g>
    <g
       id="g11532"
       transform="translate(-904.54331,-379.13388)">
      <path
         d="m 382.67717,825.59055 23.44488,0 0,-10.62992 21.61417,0 0,10.62992 23.26772,0 0,-10.62992 21.61417,0 0,10.62992 23.26772,0 0,-10.62992 21.61417,0 0,10.62992 23.26772,0 0,-10.62992 21.61417,0 0,10.62992 23.26772,0 0,-10.62992 21.61417,0 0,10.62992 23.26772,0 0,-10.62992 21.61417,0 0,10.62992 23.26772,0 0,-10.62992 21.61417,0 0,10.62992 23.26772,0 0,-10.62992 21.61417,0 0,10.62992 23.26772,0 0,-10.62992 21.61417,0 0,10.62992 23.26772,0 0,-10.62992 21.61417,0 0,10.62992 23.26771,0 0,-10.62992 21.61418,0 0,10.62992 23.44488,0"
         style="fill:none;stroke:#000000"
         inkscape:label="part"
         id="path11436"
         inkscape:connector-curvature="0" />
      <path
         d="m 900,825.59055 0,12.38189 -10.62992,0 0,20.90551 10.62992,0 0,23.18898 -10.62992,0 0,20.90551 10.62992,0 0,23.18898 -10.62992,0 0,20.90551 10.62992,0 0,23.18898 -10.62992,0 0,20.90551 10.62992,0 0,23.18898 -10.62992,0 0,20.9055 10.62992,0 0,23.189 -10.62992,0 0,20.9055 10.62992,0 0,23.189 -10.62992,0 0,20.9055 10.62992,0 0,23.189 -10.62992,0 0,20.9055 10.62992,0 0,12.3819"
         style="fill:none;stroke:#000000"
         inkscape:label="part"
         id="path11438"
         inkscape:connector-curvature="0" />
      <path
         d="m 900,1179.9213 -23.44488,0 0,10.6299 -21.61418,0 0,-10.6299 -23.26771,0 0,10.6299 -21.61417,0 0,-10.6299 -23.26772,0 0,10.6299 -21.61417,0 0,-10.6299 -23.26772,0 0,10.6299 -21.61417,0 0,-10.6299 -23.26772,0 0,10.6299 -21.61417,0 0,-10.6299 -23.26772,0 0,10.6299 -21.61417,0 0,-10.6299 -23.26772,0 0,10.6299 -21.61417,0 0,-10.6299 -23.26772,0 0,10.6299 -21.61417,0 0,-10.6299 -23.26772,0 0,10.6299 -21.61417,0 0,-10.6299 -23.26772,0 0,10.6299 -21.61417,0 0,-10.6299 -23.26772,0 0,10.6299 -21.61417,0 0,-10.6299 -23.44488,0"
         style="fill:none;stroke:#000000"
         inkscape:label="part"
         id="path11440"
         inkscape:connector-curvature="0" />
      <path
         d="m 382.67717,1179.9213 0,-12.3819 10.62992,0 0,-20.9055 -10.62992,0 0,-23.189 10.62992,0 0,-20.9055 -10.62992,0 0,-23.189 10.62992,0 0,-20.9055 -10.62992,0 0,-23.189 10.62992,0 0,-20.9055 -10.62992,0 0,-23.18898 10.62992,0 0,-20.90551 -10.62992,0 0,-23.18898 10.62992,0 0,-20.90551 -10.62992,0 0,-23.18898 10.62992,0 0,-20.90551 -10.62992,0 0,-23.18898 10.62992,0 0,-20.90551 -10.62992,0 0,-12.38189"
         style="fill:none;stroke:#000000"
         inkscape:label="part"
         id="path11442"
         inkscape:connector-curvature="0" />
    </g>
    <g
       id="g11526">
      <path
         d="m 14.173228,393.30709 12.027559,0 0,-10.62992 21.614174,0 0,10.62992 22.480315,0 0,-10.62992 21.614173,0 0,10.62992 22.480311,0 0,-10.62992 21.61418,0 0,10.62992 22.48031,0 0,-10.62992 21.61418,0 0,10.62992 22.48031,0 0,-10.62992 21.61417,0 0,10.62992 22.48032,0 0,-10.62992 21.61417,0 0,10.62992 22.48032,0 0,-10.62992 21.61417,0 0,10.62992 22.48031,0 0,-10.62992 21.61418,0 0,10.62992 12.02756,0"
         style="fill:none;stroke:#000000"
         inkscape:label="part"
         id="path11444"
         inkscape:connector-curvature="0" />
      <path
         d="m 368.50394,393.30709 0,12.93307 10.62992,0 0,21.61417 -10.62992,0 0,23.38583 10.62992,0 0,21.61417 -10.62992,0 0,23.38583 10.62992,0 0,21.61417 -10.62992,0 0,23.38583 10.62992,0 0,21.61417 -10.62992,0 0,23.38583 10.62992,0 0,21.61417 -10.62992,0 0,23.38583 10.62992,0 0,21.61417 -10.62992,0 0,23.38583 10.62992,0 0,21.61417 -10.62992,0 0,23.38583 10.62992,0 0,21.61417 -10.62992,0 0,23.38583 10.62992,0 0,21.61417 -10.62992,0 0,12.93307"
         style="fill:none;stroke:#000000"
         inkscape:label="part"
         id="path11446"
         inkscape:connector-curvature="0" />
      <path
         d="m 368.50394,800.7874 -12.02756,0 0,10.62992 -21.61418,0 0,-10.62992 -22.48031,0 0,10.62992 -21.61417,0 0,-10.62992 -22.48032,0 0,10.62992 -21.61417,0 0,-10.62992 -22.48032,0 0,10.62992 -21.61417,0 0,-10.62992 -22.48031,0 0,10.62992 -21.61418,0 0,-10.62992 -22.48031,0 0,10.62992 -21.61418,0 0,-10.62992 -22.480311,0 0,10.62992 -21.614173,0 0,-10.62992 -22.480315,0 0,10.62992 -21.614174,0 0,-10.62992 -12.027559,0"
         style="fill:none;stroke:#000000"
         inkscape:label="part"
         id="path11448"
         inkscape:connector-curvature="0" />
      <path
         d="m 14.173228,800.7874 0,-12.93307 -10.6299209,0 0,-21.61417 10.6299209,0 0,-23.38583 -10.6299209,0 0,-21.61417 10.6299209,0 0,-23.38583 -10.6299209,0 0,-21.61417 10.6299209,0 0,-23.38583 -10.6299209,0 0,-21.61417 10.6299209,0 0,-23.38583 -10.6299209,0 0,-21.61417 10.6299209,0 0,-23.38583 -10.6299209,0 0,-21.61417 10.6299209,0 0,-23.38583 -10.6299209,0 0,-21.61417 10.6299209,0 0,-23.38583 -10.6299209,0 0,-21.61417 10.6299209,0 0,-23.38583 -10.6299209,0 0,-21.61417 10.6299209,0 0,-12.93307"
         style="fill:none;stroke:#000000"
         inkscape:label="part"
         id="path11450"
         inkscape:connector-curvature="0" />
    </g>
    <g
       id="g11550">
      <path
         d="m 382.67717,382.67717 23.79921,0 0,10.62992 20.90551,0 0,-10.62992 23.97638,0 0,10.62992 20.90551,0 0,-10.62992 23.97638,0 0,10.62992 20.90551,0 0,-10.62992 23.97638,0 0,10.62992 20.90551,0 0,-10.62992 23.97638,0 0,10.62992 20.90551,0 0,-10.62992 23.97638,0 0,10.62992 20.90551,0 0,-10.62992 23.97638,0 0,10.62992 20.90551,0 0,-10.62992 23.97638,0 0,10.62992 20.90551,0 0,-10.62992 23.97638,0 0,10.62992 20.90551,0 0,-10.62992 23.97638,0 0,10.62992 20.90551,0 0,-10.62992 23.97638,0 0,10.62992 20.90551,0 0,-10.62992 23.79921,0"
         style="fill:none;stroke:#000000"
         inkscape:label="part"
         id="path11452"
         inkscape:connector-curvature="0" />
      <path
         d="m 900,382.67717 0,23.91732 -10.62992,0 0,20.90551 10.62992,0 0,24.09449 -10.62992,0 0,20.90551 10.62992,0 0,24.09449 -10.62992,0 0,20.90551 10.62992,0 0,24.09449 -10.62992,0 0,20.90551 10.62992,0 0,24.09449 -10.62992,0 0,20.90551 10.62992,0 0,24.09449 -10.62992,0 0,20.90551 10.62992,0 0,24.09449 -10.62992,0 0,20.90551 10.62992,0 0,24.09449 -10.62992,0 0,20.90551 10.62992,0 0,24.09449 -10.62992,0 0,20.90551 10.62992,0 0,23.91732"
         style="fill:none;stroke:#000000"
         inkscape:label="part"
         id="path11454"
         inkscape:connector-curvature="0" />
      <path
         d="m 900,811.41732 -23.79921,0 0,-10.62992 -20.90551,0 0,10.62992 -23.97638,0 0,-10.62992 -20.90551,0 0,10.62992 -23.97638,0 0,-10.62992 -20.90551,0 0,10.62992 -23.97638,0 0,-10.62992 -20.90551,0 0,10.62992 -23.97638,0 0,-10.62992 -20.90551,0 0,10.62992 -23.97638,0 0,-10.62992 -20.90551,0 0,10.62992 -23.97638,0 0,-10.62992 -20.90551,0 0,10.62992 -23.97638,0 0,-10.62992 -20.90551,0 0,10.62992 -23.97638,0 0,-10.62992 -20.90551,0 0,10.62992 -23.97638,0 0,-10.62992 -20.90551,0 0,10.62992 -23.97638,0 0,-10.62992 -20.90551,0 0,10.62992 -23.79921,0"
         style="fill:none;stroke:#000000"
         inkscape:label="part"
         id="path11456"
         inkscape:connector-curvature="0" />
      <path
         d="m 382.67717,811.41732 0,-23.91732 10.62992,0 0,-20.90551 -10.62992,0 0,-24.09449 10.62992,0 0,-20.90551 -10.62992,0 0,-24.09449 10.62992,0 0,-20.90551 -10.62992,0 0,-24.09449 10.62992,0 0,-20.90551 -10.62992,0 0,-24.09449 10.62992,0 0,-20.90551 -10.62992,0 0,-24.09449 10.62992,0 0,-20.90551 -10.62992,0 0,-24.09449 10.62992,0 0,-20.90551 -10.62992,0 0,-24.09449 10.62992,0 0,-20.90551 -10.62992,0 0,-24.09449 10.62992,0 0,-20.90551 -10.62992,0 0,-23.91732"
         style="fill:none;stroke:#000000"
         inkscape:label="part"
         id="path11458"
         inkscape:connector-curvature="0" />
    </g>
    <g
       id="g11544">
      <path
         d="m 914.17323,393.30709 12.02756,0 0,-10.62992 21.61417,0 0,10.62992 22.48032,0 0,-10.62992 21.61417,0 0,10.62992 22.48035,0 0,-10.62992 21.6141,0 0,10.62992 22.4804,0 0,-10.62992 21.6141,0 0,10.62992 22.4803,0 0,-10.62992 21.6142,0 0,10.62992 22.4803,0 0,-10.62992 21.6142,0 0,10.62992 22.4803,0 0,-10.62992 21.6142,0 0,10.62992 22.4803,0 0,-10.62992 21.6142,0 0,10.62992 12.0275,0"
         style="fill:none;stroke:#000000"
         inkscape:label="part"
         id="path11460"
         inkscape:connector-curvature="0" />
      <path
         d="m 1268.5039,393.30709 0,12.93307 10.63,0 0,21.61417 -10.63,0 0,23.38583 10.63,0 0,21.61417 -10.63,0 0,23.38583 10.63,0 0,21.61417 -10.63,0 0,23.38583 10.63,0 0,21.61417 -10.63,0 0,23.38583 10.63,0 0,21.61417 -10.63,0 0,23.38583 10.63,0 0,21.61417 -10.63,0 0,23.38583 10.63,0 0,21.61417 -10.63,0 0,23.38583 10.63,0 0,21.61417 -10.63,0 0,23.38583 10.63,0 0,21.61417 -10.63,0 0,12.93307"
         style="fill:none;stroke:#000000"
         inkscape:label="part"
         id="path11462"
         inkscape:connector-curvature="0" />
      <path
         d="m 1268.5039,800.7874 -12.0275,0 0,10.62992 -21.6142,0 0,-10.62992 -22.4803,0 0,10.62992 -21.6142,0 0,-10.62992 -22.4803,0 0,10.62992 -21.6142,0 0,-10.62992 -22.4803,0 0,10.62992 -21.6142,0 0,-10.62992 -22.4803,0 0,10.62992 -21.6141,0 0,-10.62992 -22.4804,0 0,10.62992 -21.6141,0 0,-10.62992 -22.48035,0 0,10.62992 -21.61417,0 0,-10.62992 -22.48032,0 0,10.62992 -21.61417,0 0,-10.62992 -12.02756,0"
         style="fill:none;stroke:#000000"
         inkscape:label="part"
         id="path11464"
         inkscape:connector-curvature="0" />
      <path
         d="m 914.17323,800.7874 0,-12.93307 -10.62992,0 0,-21.61417 10.62992,0 0,-23.38583 -10.62992,0 0,-21.61417 10.62992,0 0,-23.38583 -10.62992,0 0,-21.61417 10.62992,0 0,-23.38583 -10.62992,0 0,-21.61417 10.62992,0 0,-23.38583 -10.62992,0 0,-21.61417 10.62992,0 0,-23.38583 -10.62992,0 0,-21.61417 10.62992,0 0,-23.38583 -10.62992,0 0,-21.61417 10.62992,0 0,-23.38583 -10.62992,0 0,-21.61417 10.62992,0 0,-23.38583 -10.62992,0 0,-21.61417 10.62992,0 0,-12.93307"
         style="fill:none;stroke:#000000"
         inkscape:label="part"
         id="path11466"
         inkscape:connector-curvature="0" />
    </g>
    <g
       id="g11520"
       transform="translate(-1429.9527,432.28346)">
      <path
         d="m 382.67717,14.173228 23.44488,0 0,-10.6299209 21.61417,0 0,10.6299209 23.26772,0 0,-10.6299209 21.61417,0 0,10.6299209 23.26772,0 0,-10.6299209 21.61417,0 0,10.6299209 23.26772,0 0,-10.6299209 21.61417,0 0,10.6299209 23.26772,0 0,-10.6299209 21.61417,0 0,10.6299209 23.26772,0 0,-10.6299209 21.61417,0 0,10.6299209 23.26772,0 0,-10.6299209 21.61417,0 0,10.6299209 23.26772,0 0,-10.6299209 21.61417,0 0,10.6299209 23.26772,0 0,-10.6299209 21.61417,0 0,10.6299209 23.26772,0 0,-10.6299209 21.61417,0 0,10.6299209 23.26771,0 0,-10.6299209 21.61418,0 0,10.6299209 23.44488,0"
         style="fill:none;stroke:#000000"
         inkscape:label="part"
         id="path11476"
         inkscape:connector-curvature="0" />
      <path
         d="m 900,14.173228 0,12.38189 -10.62992,0 0,20.905512 10.62992,0 0,23.188976 -10.62992,0 0,20.905512 10.62992,0 0,23.188972 -10.62992,0 0,20.90552 10.62992,0 0,23.18897 -10.62992,0 0,20.90551 10.62992,0 0,23.18898 -10.62992,0 0,20.90551 10.62992,0 0,23.18898 -10.62992,0 0,20.90551 10.62992,0 0,23.18898 -10.62992,0 0,20.90551 10.62992,0 0,23.18898 -10.62992,0 0,20.90551 10.62992,0 0,12.38189"
         style="fill:none;stroke:#000000"
         inkscape:label="part"
         id="path11478"
         inkscape:connector-curvature="0" />
      <path
         d="m 900,368.50394 -23.44488,0 0,10.62992 -21.61418,0 0,-10.62992 -23.26771,0 0,10.62992 -21.61417,0 0,-10.62992 -23.26772,0 0,10.62992 -21.61417,0 0,-10.62992 -23.26772,0 0,10.62992 -21.61417,0 0,-10.62992 -23.26772,0 0,10.62992 -21.61417,0 0,-10.62992 -23.26772,0 0,10.62992 -21.61417,0 0,-10.62992 -23.26772,0 0,10.62992 -21.61417,0 0,-10.62992 -23.26772,0 0,10.62992 -21.61417,0 0,-10.62992 -23.26772,0 0,10.62992 -21.61417,0 0,-10.62992 -23.26772,0 0,10.62992 -21.61417,0 0,-10.62992 -23.26772,0 0,10.62992 -21.61417,0 0,-10.62992 -23.44488,0"
         style="fill:none;stroke:#000000"
         inkscape:label="part"
         id="path11480"
         inkscape:connector-curvature="0" />
      <path
         d="m 382.67717,368.50394 0,-12.38189 10.62992,0 0,-20.90551 -10.62992,0 0,-23.18898 10.62992,0 0,-20.90551 -10.62992,0 0,-23.18898 10.62992,0 0,-20.90551 -10.62992,0 0,-23.18898 10.62992,0 0,-20.90551 -10.62992,0 0,-23.18898 10.62992,0 0,-20.90551 -10.62992,0 0,-23.18897 10.62992,0 0,-20.90552 -10.62992,0 0,-23.188972 10.62992,0 0,-20.905512 -10.62992,0 0,-23.188976 10.62992,0 0,-20.905512 -10.62992,0 0,-12.38189"
         style="fill:none;stroke:#000000"
         inkscape:label="part"
         id="path11482"
         inkscape:connector-curvature="0" />
    </g>
    <path
       inkscape:connector-curvature="0"
       style="opacity:1;fill:#0000ff;stroke:#0000ff;stroke-width:1;stroke-linecap:butt;stroke-linejoin:miter;stroke-miterlimit:4;stroke-dasharray:none"
       d="m 607.67731,762.31106 a 11.901576,11.901576 0 0 0 11.90157,11.90158 11.901576,11.901576 0 0 0 11.90158,-11.90158 11.901576,11.901576 0 0 0 -11.90158,-11.90157 11.901576,11.901576 0 0 0 -11.90157,11.90157 z"
       id="path11619" />
    <path
       inkscape:connector-curvature="0"
       style="opacity:1;fill:#0000ff;stroke:#0000ff;stroke-width:1;stroke-linecap:butt;stroke-linejoin:miter;stroke-miterlimit:4;stroke-dasharray:none"
       d="m 510.23632,536.31105 a 11.901576,11.90157 0 0 0 11.90158,11.90157 11.901576,11.90157 0 0 0 11.90157,-11.90157 11.901576,11.90157 0 0 0 -11.90157,-11.90158 11.901576,11.90157 0 0 0 -11.90158,11.90158 z"
       id="circle11623" />
    <path
       inkscape:connector-curvature="0"
       style="opacity:1;fill:#0000ff;stroke:#0000ff;stroke-width:1;stroke-linecap:butt;stroke-linejoin:miter;stroke-miterlimit:4;stroke-dasharray:none"
       d="m 761.03944,536.31105 a 11.90157,11.90157 0 0 0 11.90158,11.90157 11.90157,11.90157 0 0 0 11.90157,-11.90157 11.90157,11.90157 0 0 0 -11.90157,-11.90158 11.90157,11.90157 0 0 0 -11.90158,11.90158 z"
       id="circle11625" />
    <g
       id="g11877">
      <path
         id="path11798"
         d="m 527.83867,536.31104 a 5.7007871,5.7007871 0 0 1 -5.70079,5.70078 5.7007871,5.7007871 0 0 1 -5.70079,-5.70078 5.7007871,5.7007871 0 0 1 5.70079,-5.70079 5.7007871,5.7007871 0 0 1 5.70079,5.70079 z"
         style="opacity:1;fill:none;stroke:#008000;stroke-width:0.99999994;stroke-linecap:butt;stroke-linejoin:miter;stroke-miterlimit:4;stroke-dasharray:none"
         inkscape:connector-curvature="0" />
      <path
         id="circle11800"
         d="m 778.64177,536.31104 a 5.7007871,5.7007871 0 0 1 -5.70079,5.70078 5.7007871,5.7007871 0 0 1 -5.70079,-5.70078 5.7007871,5.7007871 0 0 1 5.70079,-5.70079 5.7007871,5.7007871 0 0 1 5.70079,5.70079 z"
         style="opacity:1;fill:none;stroke:#008000;stroke-width:0.99999994;stroke-linecap:butt;stroke-linejoin:miter;stroke-miterlimit:4;stroke-dasharray:none"
         inkscape:connector-curvature="0" />
      <path
         id="circle11802"
         d="m 625.27964,762.31104 a 5.7007871,5.7007871 0 0 1 -5.70078,5.70078 5.7007871,5.7007871 0 0 1 -5.70079,-5.70078 5.7007871,5.7007871 0 0 1 5.70079,-5.70079 5.7007871,5.7007871 0 0 1 5.70078,5.70079 z"
         style="opacity:1;fill:none;stroke:#008000;stroke-width:0.99999994;stroke-linecap:butt;stroke-linejoin:miter;stroke-miterlimit:4;stroke-dasharray:none"
         inkscape:connector-curvature="0" />
    </g>
    <path
       inkscape:connector-curvature="0"
       id="rect12026"
       style="opacity:1;fill:none;stroke:#000000;stroke-width:0.99999994;stroke-linecap:butt;stroke-linejoin:miter;stroke-miterlimit:4;stroke-dasharray:none"
       d="m 1452.5788,692.61766 a 130.60236,130.60236 0 0 0 83.9453,34.8613 l 0,5.2461 a 135.91733,135.91733 0 0 1 -87.6894,-36.3633 l 3.7441,-3.7441 z m 177.5078,-0.012 3.7149,3.7148 a 135.91733,135.91733 0 0 1 -87.6465,36.4746 l 0,-5.3847 a 130.60236,130.60236 0 0 0 83.9316,-34.8047 z m -7.5058,-7.5059 3.7129,3.7129 a 125.2874,125.2874 0 0 1 -80.1387,33.3516 l 0,-5.3848 a 119.97244,119.97244 0 0 0 76.4258,-31.6797 z m -162.4844,0 a 119.97244,119.97244 0 0 0 76.4277,31.75 l 0,5.2441 a 125.2874,125.2874 0 0 1 -80.1972,-33.2246 l 3.7695,-3.7695 z m 7.5195,-7.5195 a 109.34252,109.34252 0 0 0 68.9082,28.6406 l 0,5.2441 a 114.65748,114.65748 0 0 1 -72.7089,-30.0839 l 3.8007,-3.8008 z m 147.4375,-0.01 3.7305,3.7305 a 114.65748,114.65748 0 0 1 -72.6289,30.2324 l 0,-5.3867 a 109.34252,109.34252 0 0 0 68.8984,-28.5762 z m -139.9179,-7.5117 a 98.712601,98.712601 0 0 0 61.3886,25.5273 l 0,5.2461 a 104.02756,104.02756 0 0 1 -65.164,-26.998 l 3.7754,-3.7754 z m 132.3652,-0.041 3.7734,3.7734 a 104.02756,104.02756 0 0 1 -65.1191,27.1113 l 0,-5.3847 a 98.712601,98.712601 0 0 0 61.3457,-25.5 z m -124.8535,-7.4707 a 88.08268,88.08268 0 0 0 53.8769,22.4121 l 0,5.2441 a 93.397636,93.397636 0 0 1 -57.623,-23.9101 l 3.7461,-3.7461 z m 117.3144,-0.068 3.8067,3.8067 a 93.397636,93.397636 0 0 1 -57.6133,23.9882 l 0,-5.3847 a 88.08268,88.08268 0 0 0 53.8066,-22.4102 z m -109.7988,-7.4472 a 77.452759,77.452759 0 0 0 46.3613,19.2968 l 0,5.2422 a 82.767715,82.767715 0 0 1 -50.0898,-20.8105 l 3.7285,-3.7285 z m 102.2774,-0.074 3.8222,3.8223 a 82.767715,82.767715 0 0 1 -50.1074,20.8633 l 0,-5.3848 a 77.452759,77.452759 0 0 0 46.2852,-19.3008 z m -94.7657,-7.4375 a 66.822838,66.822838 0 0 0 38.8496,16.1719 l 0,5.25 a 72.137794,72.137794 0 0 1 -42.5683,-17.7031 l 3.7187,-3.7188 z m 87.2696,-0.059 3.8105,3.8106 a 72.137794,72.137794 0 0 1 -42.5996,17.7402 l 0,-5.3828 a 66.822838,66.822838 0 0 0 38.7891,-16.168 z m 86.8789,-45.5976 5.1894,0 a 135.91733,135.91733 0 0 1 -36.3965,87.6523 l -3.7304,-3.7304 a 130.60236,130.60236 0 0 0 34.9375,-83.9219 z m -10.6719,0 5.2324,0 a 125.2874,125.2874 0 0 1 -33.2558,80.164 l -3.7735,-3.7734 a 119.97244,119.97244 0 0 0 31.7969,-76.3906 z m -10.6641,0 5.2657,0 a 114.65748,114.65748 0 0 1 -30.1094,72.6797 l -3.8164,-3.8164 a 109.34252,109.34252 0 0 0 28.6601,-68.8633 z m -10.6582,0 5.293,0 a 104.02756,104.02756 0 0 1 -27.0195,65.1387 l -3.795,-3.7969 a 98.712601,98.712601 0 0 0 25.5215,-61.3418 z m -10.6504,0 5.3164,0 a 93.397636,93.397636 0 0 1 -23.9257,57.6035 l -3.7793,-3.7773 a 88.08268,88.08268 0 0 0 22.3886,-53.8262 z m -10.6367,0 5.3223,0 a 82.767715,82.767715 0 0 1 -20.8223,50.0781 l -3.7637,-3.7637 a 77.452759,77.452759 0 0 0 19.2637,-46.3144 z m -10.6191,0 5.3125,0 a 72.137794,72.137794 0 0 1 -17.7051,42.5664 l -3.75,-3.752 a 66.822838,66.822838 0 0 0 16.1426,-38.8144 z m -138.459,0 5.2988,0 a 66.822838,66.822838 0 0 0 16.0723,38.8789 l -3.7246,3.7246 a 72.137794,72.137794 0 0 1 -17.6465,-42.6035 z m -10.6524,0 5.3243,0 a 77.452759,77.452759 0 0 0 19.1953,46.3828 l -3.7363,3.7363 a 82.767715,82.767715 0 0 1 -20.7833,-50.1191 z m -10.664,0 5.3594,0 a 88.08268,88.08268 0 0 0 22.3203,53.8867 l -3.7481,3.748 a 93.397636,93.397636 0 0 1 -23.9316,-57.6347 z m -10.6758,0 5.4082,0 a 98.712601,98.712601 0 0 0 25.4453,61.3887 l -3.7597,3.7597 a 104.02756,104.02756 0 0 1 -27.0938,-65.1484 z m -10.6758,0 5.4531,0 a 109.34252,109.34252 0 0 0 28.5684,68.8965 l -3.7656,3.7656 a 114.65748,114.65748 0 0 1 -30.2559,-72.6621 z m -10.623,0 5.4453,0 a 119.97244,119.97244 0 0 0 31.6914,76.4043 l -3.7734,3.7734 a 125.2874,125.2874 0 0 1 -33.3633,-80.1777 z m -10.6211,0 5.4394,0 a 130.60236,130.60236 0 0 0 34.8125,83.9101 l -3.7793,3.7793 a 135.91733,135.91733 0 0 1 -36.4726,-87.6894 z m 81.5976,-52.1953 3.75,3.75 a 66.822838,66.822838 0 0 0 -16.1425,38.8144 l -5.3125,0 a 72.137794,72.137794 0 0 1 17.705,-42.5644 z m 108.42,-0.041 a 72.137794,72.137794 0 0 1 17.6464,42.6054 l -5.2988,0 a 66.822838,66.822838 0 0 0 -16.0742,-38.8789 l 3.7266,-3.7265 z m -115.9336,-7.4727 3.7636,3.7637 a 77.452759,77.452759 0 0 0 -19.2617,46.3144 l -5.3242,0 a 82.767715,82.767715 0 0 1 20.8223,-50.0781 z m 123.4492,-0.043 a 82.767715,82.767715 0 0 1 20.7812,50.1211 l -5.3222,0 a 77.452759,77.452759 0 0 0 -19.1953,-46.3847 l 3.7363,-3.7364 z m -130.9746,-7.4824 3.7793,3.7793 a 88.08268,88.08268 0 0 0 -22.3887,53.8242 l -5.3164,0 a 93.397636,93.397636 0 0 1 23.9258,-57.6035 z m 138.4883,-0.031 a 93.397636,93.397636 0 0 1 23.9335,57.6347 l -5.3593,0 a 88.08268,88.08268 0 0 0 -22.3223,-53.8867 l 3.7481,-3.748 z m -146.0235,-7.504 3.7969,3.7969 a 98.712601,98.712601 0 0 0 -25.5215,61.3418 l -5.2949,0 a 104.02756,104.02756 0 0 1 27.0195,-65.1387 z m 153.5391,-0.012 a 104.02756,104.02756 0 0 1 27.0918,65.1504 l -5.4063,0 a 98.712601,98.712601 0 0 0 -25.4453,-61.3906 l 3.7598,-3.7598 z m -71.959,-1.9316 a 72.137794,72.137794 0 0 1 42.5684,17.7031 l -3.7207,3.7207 a 66.822838,66.822838 0 0 0 -38.8477,-16.1719 l 0,-5.2519 z m -9.6309,-0.068 0,5.3828 a 66.822838,66.822838 0 0 0 -38.789,16.168 l -3.8106,-3.8105 a 72.137794,72.137794 0 0 1 42.5996,-17.7403 z m 89.1036,-5.5136 a 114.65748,114.65748 0 0 1 30.2558,72.664 l -5.4531,0 a 109.34252,109.34252 0 0 0 -28.5684,-68.8984 l 3.7657,-3.7656 z m -168.5918,-0.014 3.8144,3.8144 a 109.34252,109.34252 0 0 0 -28.6582,68.8633 l -5.2656,0 a 114.65748,114.65748 0 0 1 30.1094,-72.6777 z m 89.1191,-5.0332 a 82.767715,82.767715 0 0 1 50.0879,20.8125 l -3.7266,3.7265 a 77.452759,77.452759 0 0 0 -46.3613,-19.2968 l 0,-5.2422 z m -9.6309,-0.072 0,5.3848 a 77.452759,77.452759 0 0 0 -46.2871,19.3027 l -3.8203,-3.8222 a 82.767715,82.767715 0 0 1 50.1074,-20.8653 z m -86.9746,-2.3808 3.7735,3.7734 a 119.97244,119.97244 0 0 0 -31.7969,76.3906 l -5.2305,0 a 125.2874,125.2874 0 0 1 33.2539,-80.164 z m 183.5938,-0.016 a 125.2874,125.2874 0 0 1 33.3633,80.1797 l -5.4473,0 a 119.97244,119.97244 0 0 0 -31.6914,-76.4043 l 3.7754,-3.7754 z m -191.0821,-7.4726 3.7305,3.7304 a 130.60236,130.60236 0 0 0 -34.9355,83.9219 l -5.1895,0 a 135.91733,135.91733 0 0 1 36.3945,-87.6523 z m 198.5918,-0.037 a 135.91733,135.91733 0 0 1 36.4747,87.6894 l -5.4395,0 a 130.60236,130.60236 0 0 0 -34.8125,-83.9121 l 3.7773,-3.7773 z m -94.498,-0.6524 a 93.397636,93.397636 0 0 1 57.6211,23.9102 l -3.7461,3.7461 a 88.08268,88.08268 0 0 0 -53.875,-22.4121 l 0,-5.2442 z m -9.6309,-0.0703 0,5.3848 a 88.08268,88.08268 0 0 0 -53.8066,22.4101 l -3.8066,-3.8066 a 93.397636,93.397636 0 0 1 57.6132,-23.9883 z m 9.6309,-10.56054 a 104.02756,104.02756 0 0 1 65.1641,26.99804 l -3.7754,3.7754 a 98.712601,98.712601 0 0 0 -61.3887,-25.52735 l 0,-5.24609 z m -9.6309,-0.0703 0,5.38672 a 98.712601,98.712601 0 0 0 -61.3457,25.50002 l -3.7754,-3.7754 a 104.02756,104.02756 0 0 1 65.1211,-27.11134 z m 9.6309,-10.55859 a 114.65748,114.65748 0 0 1 72.707,30.08393 l -3.7988,3.7989 a 109.34252,109.34252 0 0 0 -68.9082,-28.63869 l 0,-5.24414 z m -9.6309,-0.0703 0,5.38476 a 109.34252,109.34252 0 0 0 -68.9004,28.57807 l -3.7285,-3.7304 a 114.65748,114.65748 0 0 1 72.6289,-30.23243 z m 9.6309,-10.56055 a 125.2874,125.2874 0 0 1 80.1973,33.22458 l -3.7715,3.7715 a 119.97244,119.97244 0 0 0 -76.4258,-31.75194 l 0,-5.24414 z m -9.6309,-0.0703 0,5.38476 a 119.97244,119.97244 0 0 0 -76.4277,31.67962 l -3.7129,-3.7109 a 125.2874,125.2874 0 0 1 80.1406,-33.35348 z m 9.6309,-10.55664 a 135.91733,135.91733 0 0 1 87.6875,36.36133 l -3.7422,3.74218 a 130.60236,130.60236 0 0 0 -83.9453,-34.86133 l 0,-5.24218 z m -9.6309,-0.0723 0,5.38477 a 130.60236,130.60236 0 0 0 -83.9316,34.80468 l -3.7148,-3.71484 a 135.91733,135.91733 0 0 1 87.6464,-36.47461 z" />
    <path
       inkscape:connector-curvature="0"
       style="opacity:1;fill:none;stroke:#000000;stroke-width:1;stroke-linecap:butt;stroke-linejoin:miter;stroke-miterlimit:4;stroke-dasharray:none"
       d="m 1423.9095,471.25983 a 8.3582678,8.3582678 0 0 1 -8.3582,8.35826 8.3582678,8.3582678 0 0 1 -8.3583,-8.35826 8.3582678,8.3582678 0 0 1 8.3583,-8.35827 8.3582678,8.3582678 0 0 1 8.3582,8.35827 z"
       id="path12067" />
    <path
       inkscape:connector-curvature="0"
       style="opacity:1;fill:none;stroke:#000000;stroke-width:1;stroke-linecap:butt;stroke-linejoin:miter;stroke-miterlimit:4;stroke-dasharray:none"
       d="m 1675.4842,471.25983 a 8.3582678,8.3582678 0 0 1 -8.3582,8.35826 8.3582678,8.3582678 0 0 1 -8.3583,-8.35826 8.3582678,8.3582678 0 0 1 8.3583,-8.35827 8.3582678,8.3582678 0 0 1 8.3582,8.35827 z"
       id="circle12069" />
    <path
       inkscape:connector-curvature="0"
       style="opacity:1;fill:none;stroke:#000000;stroke-width:1;stroke-linecap:butt;stroke-linejoin:miter;stroke-miterlimit:4;stroke-dasharray:none"
       d="m 1675.4842,722.83459 a 8.3582678,8.3582678 0 0 1 -8.3582,8.35827 8.3582678,8.3582678 0 0 1 -8.3583,-8.35827 8.3582678,8.3582678 0 0 1 8.3583,-8.35826 8.3582678,8.3582678 0 0 1 8.3582,8.35826 z"
       id="circle12071" />
    <path
       inkscape:connector-curvature="0"
       style="opacity:1;fill:none;stroke:#000000;stroke-width:1;stroke-linecap:butt;stroke-linejoin:miter;stroke-miterlimit:4;stroke-dasharray:none"
       d="m 1423.9095,722.83459 a 8.3582678,8.3582678 0 0 1 -8.3582,8.35827 8.3582678,8.3582678 0 0 1 -8.3583,-8.35827 8.3582678,8.3582678 0 0 1 8.3583,-8.35826 8.3582678,8.3582678 0 0 1 8.3582,8.35826 z"
       id="circle12073" />
    <rect
       style="opacity:1;fill:none;stroke:#000000;stroke-width:1;stroke-linecap:butt;stroke-linejoin:miter;stroke-miterlimit:4;stroke-dasharray:none"
       id="rect12289"
       width="45.062992"
       height="69.866142"
       x="1719.5039"
       y="562.1142" />
  </g>
  <g
     id="g11484"
     inkscape:groupmode="layer"
     inkscape:label="newlayer"
     transform="translate(1083.2086,-346.74409)" />
</svg>
